<svg xmlns="http://www.w3.org/2000/svg" viewBox="0 0 24 24" width="384px" height="384px">
  <path d="M12,2V1.587c0-0.475-0.536-0.753-0.924-0.478L9.08,2.522c-0.33,0.234-0.33,0.723,0,0.956 l1.995,1.413C11.464,5.166,12,4.889,12,4.413V4c4.943,0,8.839,4.483,7.844,9.605c-0.606,3.119-3.12,5.633-6.239,6.239 C8.483,20.839,4,16.943,4,12c0-1.634,0.491-3.153,1.332-4.419c0.279-0.419,0.189-0.98-0.197-1.303 c-0.457-0.381-1.15-0.284-1.479,0.212c-1.266,1.913-1.894,4.286-1.573,6.816c0.571,4.501,4.254,8.124,8.763,8.629 C16.886,22.611,22,17.903,22,12C22,6.477,17.523,2,12,2z" opacity=".35" fill="#EF7F20" />
  <path d="M17.375,13.732c0,0.488-0.269,2.393-2.604,2.393c-2.273,0-2.56-1.887-2.56-2.393c0-1.48,1.085-1.874,1.241-1.933v-0.023 c-0.35-0.141-1.084-0.561-1.084-1.732c0-0.389,0.216-2.169,2.403-2.169s2.448,1.735,2.448,2.169c0,1.162-0.73,1.591-1.073,1.732 v0.023C16.302,11.858,17.375,12.252,17.375,13.732z M15.576,13.632c0-0.335-0.137-1.14-0.806-1.14c-0.668,0-0.804,0.804-0.804,1.14 c0,0.329,0.116,1.129,0.804,1.129C15.459,14.761,15.576,13.96,15.576,13.632z M15.508,10.167c0-0.291-0.096-1.006-0.738-1.006 s-0.726,0.715-0.726,1.006c0,0.267,0.135,1.028,0.726,1.028C15.361,11.196,15.508,10.435,15.508,10.167z" fill="#EF7F20" />
  <path d="M10.57,14.396v0.802c0,0.443-0.359,0.802-0.802,0.802h0c-0.443,0-0.802-0.359-0.802-0.802v-0.802H7.291 c-0.691,0-1.252-0.56-1.252-1.252v0c0-0.188,0.042-0.373,0.124-0.543l1.847-3.839C8.235,8.296,8.707,8,9.224,8h0 c0.744,0,1.346,0.603,1.346,1.346v3.557h0.067c0.412,0,0.746,0.334,0.746,0.746v0c0,0.412-0.334,0.746-0.746,0.746H10.57z M9,9.763 H8.977l-1.367,3.14H9V9.763z" fill="#EF7F20" />
</svg>